<?xml version="1.0" encoding="UTF-8" standalone="no"?>
<svg viewBox="0 0 50 50"
 xmlns="http://www.w3.org/2000/svg" xmlns:xlink="http://www.w3.org/1999/xlink"  version="1.2" baseProfile="tiny">
<title>Qt SVG Document</title>
<desc>Generated with Qt</desc>
<defs>
<linearGradient gradientUnits="userSpaceOnUse" x1="8.40567" y1="25.1569" x2="8.40567" y2="18.1244" id="gradient1">
    <stop offset="0" stop-color="#9e9e9e" stop-opacity="1" />
    <stop offset="1" stop-color="#f7f7f7" stop-opacity="1" />
</linearGradient>
</defs>
<g fill="none" stroke="black" stroke-width="1" fill-rule="evenodd" stroke-linecap="square" stroke-linejoin="bevel" >

<g fill="url(#gradient1)" stroke="none" transform="matrix(3.21889,0,0,3.49164,-15.4769,-51.0872)"
font-family="Noto Sans" font-size="10" font-weight="400" font-style="normal" 
>
<path vector-effect="none" fill-rule="nonzero" d="M9.01837,18.5064 L11.5808,21.5412 L8.70773,24.576 L11.2483,24.5685 L12.7546,22.867 L14.2609,24.5685 L16.7508,24.5806 L13.9088,21.5633 L16.4713,18.5285 L14.2414,18.536 L12.735,20.2375 L11.2287,18.536 L9.01837,18.5064 L9.01837,18.5064"/>
</g>

<g fill="none" stroke="#979797" stroke-opacity="1" stroke-width="1" stroke-linecap="butt" stroke-linejoin="miter" stroke-miterlimit="4" transform="matrix(3.21889,0,0,3.49164,-15.4769,-51.0872)"
font-family="Noto Sans" font-size="10" font-weight="400" font-style="normal" 
opacity="0.562212" >
<path vector-effect="none" fill-rule="nonzero" d="M9.01837,18.5064 L11.5808,21.5412 L8.70773,24.576 L11.2483,24.5685 L12.7546,22.867 L14.2609,24.5685 L16.7508,24.5806 L13.9088,21.5633 L16.4713,18.5285 L14.2414,18.536 L12.735,20.2375 L11.2287,18.536 L9.01837,18.5064 L9.01837,18.5064"/>
</g>

<g fill="none" stroke="none" transform="matrix(2.61658,0,0,3.12814,-18.01,-7.84552)"
font-family="Noto Sans" font-size="10" font-weight="400" font-style="normal" 
>
<path vector-effect="none" fill-rule="nonzero" d="M25.375,10.5 C25.375,14.5731 21.3735,17.875 16.4375,17.875 C11.5015,17.875 7.5,14.5731 7.5,10.5 C7.5,6.4269 11.5015,3.125 16.4375,3.125 C21.3735,3.125 25.375,6.4269 25.375,10.5 "/>
</g>

<g fill="none" stroke="#757575" stroke-opacity="1" stroke-width="1.23392" stroke-linecap="butt" stroke-linejoin="round" transform="matrix(2.61658,0,0,3.12814,-18.01,-7.84552)"
font-family="Noto Sans" font-size="10" font-weight="400" font-style="normal" 
opacity="0.188755" >
<path vector-effect="none" fill-rule="nonzero" d="M25.375,10.5 C25.375,14.5731 21.3735,17.875 16.4375,17.875 C11.5015,17.875 7.5,14.5731 7.5,10.5 C7.5,6.4269 11.5015,3.125 16.4375,3.125 C21.3735,3.125 25.375,6.4269 25.375,10.5 "/>
</g>

<g fill="none" stroke="#000000" stroke-opacity="1" stroke-width="1" stroke-linecap="square" stroke-linejoin="bevel" transform="matrix(1,0,0,1,0,0)"
font-family="Noto Sans" font-size="10" font-weight="400" font-style="normal" 
>
</g>
</g>
</svg>
