<?xml version="1.0" encoding="UTF-8" standalone="no"?>
<svg viewBox="0 0 50 50"
 xmlns="http://www.w3.org/2000/svg" xmlns:xlink="http://www.w3.org/1999/xlink"  version="1.2" baseProfile="tiny">
<title>Qt SVG Document</title>
<desc>Generated with Qt</desc>
<defs>
</defs>
<g fill="none" stroke="black" stroke-width="1" fill-rule="evenodd" stroke-linecap="square" stroke-linejoin="bevel" >

<g fill="#ff0000" fill-opacity="1" stroke="none" transform="matrix(3.21889,0,0,3.49164,-80.257,-51.0872)"
font-family="Noto Sans" font-size="10" font-weight="400" font-style="normal" 
>
<path vector-effect="none" fill-rule="nonzero" d="M28.9057,18.9483 L31.4682,21.9831 L28.5951,25.018 L31.1357,25.0105 L32.642,23.309 L34.1483,25.0105 L36.6382,25.0225 L33.7962,22.0053 L36.3587,18.9704 L34.1287,18.9779 L32.6224,20.6794 L31.1161,18.9779 L28.9057,18.9483 L28.9057,18.9483"/>
</g>

<g fill="none" stroke="#800000" stroke-opacity="1" stroke-width="1" stroke-linecap="butt" stroke-linejoin="miter" stroke-miterlimit="4" transform="matrix(3.21889,0,0,3.49164,-80.257,-51.0872)"
font-family="Noto Sans" font-size="10" font-weight="400" font-style="normal" 
opacity="0.562212" >
<path vector-effect="none" fill-rule="nonzero" d="M28.9057,18.9483 L31.4682,21.9831 L28.5951,25.018 L31.1357,25.0105 L32.642,23.309 L34.1483,25.0105 L36.6382,25.0225 L33.7962,22.0053 L36.3587,18.9704 L34.1287,18.9779 L32.6224,20.6794 L31.1161,18.9779 L28.9057,18.9483 L28.9057,18.9483"/>
</g>

<g fill="none" stroke="none" transform="matrix(2.61658,0,0,3.12814,-18.01,-7.84552)"
font-family="Noto Sans" font-size="10" font-weight="400" font-style="normal" 
>
<path vector-effect="none" fill-rule="nonzero" d="M25.375,10.5 C25.375,14.5731 21.3735,17.875 16.4375,17.875 C11.5015,17.875 7.5,14.5731 7.5,10.5 C7.5,6.4269 11.5015,3.125 16.4375,3.125 C21.3735,3.125 25.375,6.4269 25.375,10.5 "/>
</g>

<g fill="none" stroke="#757575" stroke-opacity="1" stroke-width="1.23392" stroke-linecap="butt" stroke-linejoin="round" transform="matrix(2.61658,0,0,3.12814,-18.01,-7.84552)"
font-family="Noto Sans" font-size="10" font-weight="400" font-style="normal" 
opacity="0.188755" >
<path vector-effect="none" fill-rule="nonzero" d="M25.375,10.5 C25.375,14.5731 21.3735,17.875 16.4375,17.875 C11.5015,17.875 7.5,14.5731 7.5,10.5 C7.5,6.4269 11.5015,3.125 16.4375,3.125 C21.3735,3.125 25.375,6.4269 25.375,10.5 "/>
</g>

<g fill="none" stroke="#000000" stroke-opacity="1" stroke-width="1" stroke-linecap="square" stroke-linejoin="bevel" transform="matrix(1,0,0,1,0,0)"
font-family="Noto Sans" font-size="10" font-weight="400" font-style="normal" 
>
</g>
</g>
</svg>
