<?xml version="1.0" encoding="UTF-8" standalone="no"?>
<svg viewBox="0 0 50 50"
 xmlns="http://www.w3.org/2000/svg" xmlns:xlink="http://www.w3.org/1999/xlink"  version="1.2" baseProfile="tiny">
<title>Qt SVG Document</title>
<desc>Generated with Qt</desc>
<defs>
<linearGradient gradientUnits="userSpaceOnUse" x1="12.853" y1="-11.8331" x2="12.853" y2="-15.7813" id="gradient1">
    <stop offset="0" stop-color="#9e9e9e" stop-opacity="1" />
    <stop offset="1" stop-color="#f7f7f7" stop-opacity="1" />
</linearGradient>
</defs>
<g fill="none" stroke="black" stroke-width="1" fill-rule="evenodd" stroke-linecap="square" stroke-linejoin="bevel" >

<g fill="url(#gradient1)" stroke="none" transform="matrix(3.34185,0,0,3.65229,-18.8115,-55.3945)"
font-family="Noto Sans" font-size="10" font-weight="400" font-style="normal" 
>
<rect x="9.67505" y="20.9834" width="6.66589" height="1.84852"/>
</g>

<g fill="none" stroke="#979797" stroke-opacity="1" stroke-width="1" stroke-linecap="butt" stroke-linejoin="miter" stroke-miterlimit="4" transform="matrix(3.34185,0,0,3.65229,-18.8115,-55.3945)"
font-family="Noto Sans" font-size="10" font-weight="400" font-style="normal" 
opacity="0.562212" >
<rect x="9.67505" y="20.9834" width="6.66589" height="1.84852"/>
</g>

<g fill="none" stroke="none" transform="matrix(2.71653,0,0,3.27207,-19.653,-9.35677)"
font-family="Noto Sans" font-size="10" font-weight="400" font-style="normal" 
>
<path vector-effect="none" fill-rule="nonzero" d="M25.375,10.5 C25.375,14.5731 21.3735,17.875 16.4375,17.875 C11.5015,17.875 7.5,14.5731 7.5,10.5 C7.5,6.4269 11.5015,3.125 16.4375,3.125 C21.3735,3.125 25.375,6.4269 25.375,10.5 "/>
</g>

<g fill="none" stroke="#757575" stroke-opacity="1" stroke-width="0.53083" stroke-linecap="butt" stroke-linejoin="round" transform="matrix(2.71653,0,0,3.27207,-19.653,-9.35677)"
font-family="Noto Sans" font-size="10" font-weight="400" font-style="normal" 
opacity="0.188755" >
<path vector-effect="none" fill-rule="nonzero" d="M25.375,10.5 C25.375,14.5731 21.3735,17.875 16.4375,17.875 C11.5015,17.875 7.5,14.5731 7.5,10.5 C7.5,6.4269 11.5015,3.125 16.4375,3.125 C21.3735,3.125 25.375,6.4269 25.375,10.5 "/>
</g>

<g fill="none" stroke="#000000" stroke-opacity="1" stroke-width="1" stroke-linecap="square" stroke-linejoin="bevel" transform="matrix(1,0,0,1,0,0)"
font-family="Noto Sans" font-size="10" font-weight="400" font-style="normal" 
>
</g>
</g>
</svg>
